<svg width="54" height="37" viewBox="0 0 54 37" fill="none" xmlns="http://www.w3.org/2000/svg">
<path d="M13.8928 0.75L1.25781 13.5833L3.98781 16.3522L13.8928 6.30575L23.7978 16.3522L26.5453 13.5833L13.8928 0.75Z" fill="#FFDB43"/>
<path d="M26.0843 0.760403L23.3496 3.53418L35.9961 16.3613L38.7308 13.5875L26.0843 0.760403Z" fill="#FFDB43"/>
<path d="M38.266 0.767239L35.5312 3.54102L48.1777 16.3682L50.9124 13.5944L38.266 0.767239Z" fill="#FFDB43"/>
<path d="M0.347656 23.0791H3.90015V36.0011H0.347656V23.0791Z" fill="black"/>
<path d="M7.1377 23.0791H9.6577L13.8927 27.3746L18.1277 23.0791H20.6477V36.0011H17.1302V28.5461L13.8752 31.8476L10.5677 28.4928V36.0011H7.1377V23.0791Z" fill="black"/>
<path d="M23.8329 23.0791H26.3529L30.5879 27.3746L34.8229 23.0791H37.3429V36.0011H33.8254V28.5461L30.5704 31.8476L27.2629 28.4928V36.0011H23.8154V23.0791H23.8329Z" fill="black"/>
<path d="M39.9326 29.5761V29.5406C39.9326 25.8308 42.8726 22.8311 46.8101 22.8311C50.7476 22.8311 53.6526 25.7953 53.6526 29.5051V29.5406C53.6526 33.2503 50.7126 36.2501 46.7751 36.2501C42.8376 36.2501 39.9326 33.2858 39.9326 29.5761ZM50.0476 29.5761V29.5406C50.0476 27.6768 48.7176 26.0438 46.7751 26.0438C44.8326 26.0438 43.5551 27.6236 43.5551 29.4873V29.5228C43.5551 31.3866 44.8851 33.0018 46.8101 33.0018C48.7351 33.0018 50.0476 31.4398 50.0476 29.5761Z" fill="black"/>
</svg>
